<?xml version="1.0" encoding="utf-8"?>
<!-- Generator: Adobe Illustrator 19.0.0, SVG Export Plug-In . SVG Version: 6.00 Build 0)  -->
<svg version="1.1" id="Layer_1" xmlns="http://www.w3.org/2000/svg" xmlns:xlink="http://www.w3.org/1999/xlink" x="0px" y="0px"
	 viewBox="50 -151 1060 862" style="enable-background:new 50 -151 1060 862;" xml:space="preserve">
<style type="text/css">
	.st0{fill:#ED1C24;}
	.st1{fill:#FFFFFF;}
</style>
<title>Artboard 2</title>
<desc>Created with Sketch.</desc>
<circle id="XMLID_26_" class="st0" cx="151.7" cy="-8.3" r="51.3"/>
<g id="XMLID_22_">
	<path id="XMLID_23_" class="st1" d="M176.8,10.6c0.3,1,0.6,1.8,0.6,2.4c0.1,0.6,0,1-0.3,1.3c-0.3,0.3-0.9,0.5-1.7,0.6
		c-0.8,0.1-1.9,0.1-3.3,0.1c-1.5,0-2.6,0-3.4-0.1c-0.8,0-1.4-0.1-1.9-0.3c-0.4-0.1-0.7-0.3-0.9-0.5c-0.2-0.2-0.3-0.5-0.4-0.9
		l-3.7-11.1h-20.8L137.7,13c-0.1,0.4-0.3,0.7-0.4,1c-0.2,0.3-0.5,0.5-0.9,0.6c-0.4,0.2-1,0.3-1.8,0.3c-0.8,0.1-1.7,0.1-3,0.1
		c-1.3,0-2.3,0-3.1-0.1c-0.7-0.1-1.3-0.3-1.5-0.6c-0.3-0.3-0.4-0.8-0.3-1.4c0.1-0.6,0.3-1.4,0.6-2.4l17-49c0.2-0.5,0.4-0.9,0.6-1.2
		c0.2-0.3,0.6-0.5,1.1-0.7c0.5-0.2,1.2-0.3,2.1-0.3c0.9,0,2-0.1,3.5-0.1c1.7,0,3,0,4,0.1c1,0,1.8,0.1,2.3,0.3c0.6,0.2,1,0.4,1.2,0.7
		c0.2,0.3,0.4,0.7,0.6,1.3L176.8,10.6z M151.5-29.9L151.5-29.9l-7.9,23.5h15.7L151.5-29.9z"/>
</g>
<g>
	<path d="M252.4-6.6c0,1.3-0.3,2.3-0.9,2.9c-0.6,0.6-1.4,0.9-2.4,0.9h-23.2c0,1.6,0.2,3.1,0.6,4.4c0.4,1.3,1,2.4,1.8,3.4
		c0.8,0.9,1.9,1.6,3.2,2.1c1.3,0.5,2.9,0.7,4.8,0.7c1.9,0,3.5-0.1,5-0.4c1.4-0.3,2.7-0.6,3.7-0.9c1-0.3,1.9-0.6,2.6-0.9
		c0.7-0.3,1.2-0.4,1.7-0.4c0.3,0,0.5,0.1,0.6,0.1c0.2,0.1,0.3,0.3,0.4,0.5c0.1,0.3,0.2,0.6,0.2,1.1c0,0.5,0.1,1.1,0.1,1.8
		c0,0.6,0,1.2,0,1.6c0,0.4-0.1,0.8-0.1,1.1c-0.1,0.3-0.1,0.6-0.3,0.8c-0.1,0.2-0.3,0.4-0.4,0.6c-0.2,0.2-0.7,0.5-1.5,0.8
		c-0.8,0.3-1.9,0.7-3.2,1c-1.3,0.3-2.7,0.6-4.4,0.9c-1.7,0.2-3.4,0.4-5.3,0.4c-3.4,0-6.4-0.4-8.9-1.3c-2.5-0.9-4.7-2.1-6.4-3.9
		c-1.7-1.7-3-3.9-3.8-6.6C215.4,1.6,215-1.5,215-5c0-3.4,0.4-6.4,1.3-9.2c0.9-2.7,2.2-5,3.8-6.9c1.7-1.9,3.7-3.3,6.1-4.3
		c2.4-1,5.1-1.5,8.1-1.5c3.2,0,5.9,0.5,8.2,1.4s4.1,2.2,5.6,3.9c1.5,1.7,2.5,3.6,3.2,5.9c0.7,2.3,1,4.8,1,7.4V-6.6z M242-9.7
		c0.1-3-0.5-5.4-1.8-7.1c-1.3-1.7-3.3-2.6-6-2.6c-1.4,0-2.6,0.3-3.6,0.8c-1,0.5-1.9,1.2-2.5,2.1c-0.7,0.9-1.2,1.9-1.5,3.1
		c-0.4,1.2-0.6,2.4-0.6,3.8H242z"/>
	<path d="M297.4,13.6c0,0.3-0.1,0.6-0.2,0.8c-0.1,0.2-0.4,0.4-0.7,0.5c-0.3,0.1-0.8,0.2-1.4,0.3c-0.6,0.1-1.3,0.1-2.2,0.1
		c-0.9,0-1.7,0-2.2-0.1c-0.6-0.1-1-0.2-1.4-0.3c-0.4-0.1-0.6-0.3-0.8-0.5c-0.2-0.2-0.2-0.5-0.2-0.8V9.3c-2,2.1-4,3.7-6.2,4.9
		c-2.1,1.2-4.5,1.8-7.2,1.8c-2.9,0-5.4-0.6-7.4-1.7c-2-1.1-3.6-2.6-4.9-4.5c-1.3-1.9-2.2-4.1-2.8-6.7c-0.6-2.5-0.9-5.2-0.9-8
		c0-3.4,0.4-6.4,1.1-9.1c0.7-2.7,1.8-5,3.2-6.9c1.4-1.9,3.1-3.4,5.2-4.4c2.1-1,4.5-1.5,7.2-1.5c2.1,0,4.1,0.4,5.8,1.3
		c1.7,0.9,3.5,2.1,5.2,3.8v-20.6c0-0.3,0.1-0.5,0.2-0.8c0.2-0.2,0.4-0.4,0.9-0.6c0.4-0.2,1-0.3,1.6-0.4s1.6-0.1,2.6-0.1
		c1.1,0,1.9,0,2.6,0.1c0.7,0.1,1.2,0.2,1.6,0.4c0.4,0.2,0.7,0.3,0.9,0.6c0.2,0.2,0.3,0.5,0.3,0.8V13.6z M286.7-11.9
		c-1.5-1.9-3-3.4-4.4-4.4c-1.4-1-2.9-1.5-4.4-1.5c-1.4,0-2.6,0.3-3.6,1c-1,0.7-1.8,1.6-2.4,2.8c-0.6,1.2-1.1,2.5-1.4,3.9
		c-0.3,1.4-0.4,2.9-0.4,4.4c0,1.6,0.1,3.1,0.4,4.7c0.3,1.5,0.7,2.9,1.3,4c0.6,1.2,1.4,2.1,2.3,2.8c1,0.7,2.2,1.1,3.7,1.1
		c0.7,0,1.5-0.1,2.2-0.3c0.7-0.2,1.4-0.6,2.1-1c0.7-0.5,1.5-1.1,2.2-1.9c0.8-0.8,1.6-1.7,2.5-2.9V-11.9z"/>
	<path d="M344.3,13.6c0,0.3-0.1,0.5-0.2,0.7c-0.1,0.2-0.4,0.4-0.7,0.5c-0.4,0.1-0.8,0.2-1.4,0.3c-0.6,0.1-1.3,0.1-2.2,0.1
		c-0.9,0-1.7,0-2.3-0.1c-0.6-0.1-1-0.2-1.4-0.3c-0.3-0.1-0.6-0.3-0.7-0.5c-0.1-0.2-0.2-0.5-0.2-0.7V9.2c-2.1,2.3-4.2,4-6.4,5.1
		s-4.4,1.7-6.8,1.7c-2.6,0-4.8-0.4-6.6-1.3c-1.8-0.9-3.2-2-4.3-3.5c-1.1-1.5-1.9-3.2-2.3-5.1S308,1.7,308-1.2v-23.3
		c0-0.3,0.1-0.5,0.2-0.7c0.2-0.2,0.4-0.4,0.9-0.5c0.4-0.1,1-0.2,1.7-0.3c0.7-0.1,1.6-0.1,2.6-0.1c1.1,0,1.9,0,2.6,0.1
		s1.2,0.2,1.6,0.3c0.4,0.1,0.7,0.3,0.9,0.5c0.2,0.2,0.3,0.5,0.3,0.7V-3c0,2,0.1,3.5,0.4,4.6c0.3,1.1,0.6,2,1.2,2.7
		c0.5,0.8,1.2,1.3,2,1.7c0.8,0.4,1.8,0.6,2.8,0.6c1.4,0,2.7-0.5,4.1-1.5c1.4-1,2.9-2.4,4.4-4.4v-25.3c0-0.3,0.1-0.5,0.2-0.7
		c0.2-0.2,0.4-0.4,0.9-0.5c0.4-0.1,1-0.2,1.6-0.3c0.7-0.1,1.6-0.1,2.6-0.1c1.1,0,1.9,0,2.6,0.1c0.7,0.1,1.2,0.2,1.6,0.3
		c0.4,0.1,0.7,0.3,0.9,0.5c0.2,0.2,0.3,0.5,0.3,0.7V13.6z"/>
</g>
<image style="overflow:visible;" width="960" height="500" xlink:href="D:\project\biologia\mesh.png"  transform="matrix(1 0 0 1 100 158)">
</image>
<image style="overflow:visible;" width="640" height="360" xlink:href="D:\project\budowa-organizmu-czlowieka.jpg"  transform="matrix(0.5891 0 0 0.5891 683 -104)">
</image>
</svg>
